/* XPM */
static const char * fileopen_xpm[] = {
"32 26 18 1",
" 	c None",
".	c #040404",
"+	c #545504",
"@	c #7C7E04",
"#	c #7C7E40",
"$	c #7C7E7C",
"%	c #F3F704",
"&	c #F3F77C",
"*	c #F3F7F3",
"=	c #B7BA40",
"-	c #404140",
";	c #404104",
">	c #5F6004",
",	c #424404",
"'	c #232404",
")	c #808304",
"!	c #616304",
"~	c #2D2E04",
"                  .......       ",
"                  .......       ",
"                 .........   .  ",
"                ...     ... ... ",
"                 .       ...... ",
"                          ..... ",
"   .....                 ...... ",
"  .......               ....... ",
"..+@#$#@+.............   .....  ",
"..@%&*&%@..............         ",
"..#&&&&&=@#$#@#$#@#$-..         ",
"..$*&%&*&%&*&%&*&%&*$..         ",
"..#&&&&&&&&&&&&&&&&&#..         ",
"..@%&*&%&*&%&*&%&*&%@..         ",
"..#&&&&&&&=@#$#@#$#@;...........",
"..$*&%&*&%@.....................",
"..#&&&&&=@>,,,,,,,,,,,,,,,,,'...",
"..@%&*&%@.,))))))))))))))))),.. ",
"..#&&&=@>,!)))))))))))))))!,~.  ",
"..$*&%@.,))))))))))))))))),..   ",
"..#&=@>,!)))))))))))))))!,~.    ",
"..@%@.,))))))))))))))))),..     ",
"..;@>,!)))))))))))))))!,~.      ",
"....,))))))))))))))))),..       ",
"....',,,,,,,,,,,,,,,,,~.        ",
".......................         "};
