<?xml version="1.0" encoding="UTF-8" standalone="no"?>
<!-- Created with Inkscape (http://www.inkscape.org/) -->

<svg
   width="60.977245mm"
   height="70.209038mm"
   viewBox="0 0 60.977245 70.209038"
   version="1.1"
   id="svg1"
   xml:space="preserve"
   xmlns:xlink="http://www.w3.org/1999/xlink"
   xmlns="http://www.w3.org/2000/svg"
   xmlns:svg="http://www.w3.org/2000/svg"><defs
     id="defs1"><linearGradient
       id="linearGradient55"><stop
         style="stop-color:#007836;stop-opacity:1;"
         offset="0"
         id="stop55" /><stop
         style="stop-color:#77b300;stop-opacity:1;"
         offset="0.6992389"
         id="stop56" /></linearGradient><linearGradient
       id="linearGradient53"><stop
         style="stop-color:#0b1f8f;stop-opacity:1;"
         offset="0"
         id="stop53" /><stop
         style="stop-color:#0082ca;stop-opacity:1;"
         offset="0.70341361"
         id="stop54" /></linearGradient><linearGradient
       id="linearGradient51"><stop
         style="stop-color:#a12b2f;stop-opacity:1;"
         offset="0"
         id="stop51" /><stop
         style="stop-color:#cd202c;stop-opacity:1;"
         offset="0.69999999"
         id="stop52" /></linearGradient><linearGradient
       xlink:href="#linearGradient51"
       id="linearGradient52"
       x1="99.045441"
       y1="-37.519699"
       x2="133.91045"
       y2="-2.6905365"
       gradientUnits="userSpaceOnUse" /><linearGradient
       xlink:href="#linearGradient53"
       id="linearGradient54"
       x1="171.448"
       y1="168.73956"
       x2="136.58302"
       y2="133.9104"
       gradientUnits="userSpaceOnUse" /><linearGradient
       xlink:href="#linearGradient55"
       id="linearGradient56"
       x1="101.73597"
       y1="32.138626"
       x2="136.60098"
       y2="-2.6905365"
       gradientUnits="userSpaceOnUse" /></defs><g
     id="layer1"
     transform="translate(-87.803453,-30.588255)"><path
       id="rect45"
       style="fill:url(#linearGradient56);stroke:#000000;stroke-width:0.698471;stroke-linecap:round;stroke-linejoin:bevel;stroke-dasharray:none"
       transform="matrix(0.866025,0.5,0,1,0,0)"
       d="m 101.73597,-2.6905365 h 34.86497 V 32.138626 h -34.86497 z" /><path
       id="rect49"
       d="M 99.045441,-37.519699 H 133.91044 V -2.6905365 H 99.045441 Z"
       style="fill:url(#linearGradient52);stroke:#000000;stroke-width:0.698471;stroke-linecap:butt;stroke-linejoin:bevel;stroke-dasharray:none;stroke-opacity:1"
       transform="matrix(0.866025,0.5,-0.866025,0.5,0,0)" /><path
       id="rect50"
       style="fill:url(#linearGradient54);stroke:#000000;stroke-width:0.698471;stroke-linecap:round;stroke-linejoin:bevel;stroke-dasharray:none"
       transform="matrix(0.866025,-0.5,0,1,0,0)"
       d="m 136.58302,133.9104 h 34.86497 v 34.82916 h -34.86497 z" /><circle
       style="mix-blend-mode:normal;fill:#000000;fill-opacity:1;fill-rule:nonzero;stroke:#000000;stroke-width:0;stroke-linecap:round;stroke-linejoin:miter;stroke-dasharray:none;stroke-opacity:1;paint-order:normal"
       id="circle335"
       cx="119.91306"
       cy="27.087322"
       r="1.4563681"
       transform="rotate(7.13836)" /><circle
       style="mix-blend-mode:normal;fill:#000000;fill-opacity:1;fill-rule:nonzero;stroke:#000000;stroke-width:0;stroke-linecap:round;stroke-linejoin:miter;stroke-dasharray:none;stroke-opacity:1;paint-order:normal"
       id="circle336"
       cx="114.05958"
       cy="36.024319"
       r="1.4563681"
       transform="rotate(7.13836)" /><circle
       style="mix-blend-mode:normal;fill:#000000;fill-opacity:1;fill-rule:nonzero;stroke:#000000;stroke-width:0;stroke-linecap:round;stroke-linejoin:miter;stroke-dasharray:none;stroke-opacity:1;paint-order:normal"
       id="circle349"
       cx="137.24594"
       cy="36.519146"
       r="1.4563681"
       transform="rotate(7.13836)" /><circle
       style="mix-blend-mode:normal;fill:#000000;fill-opacity:1;fill-rule:nonzero;stroke:#000000;stroke-width:0;stroke-linecap:round;stroke-linejoin:miter;stroke-dasharray:none;stroke-opacity:1;paint-order:normal"
       id="circle355"
       cx="121.78184"
       cy="33.083626"
       r="1.4563681"
       transform="rotate(7.13836)" /><circle
       style="mix-blend-mode:normal;fill:#000000;fill-opacity:1;fill-rule:nonzero;stroke:#000000;stroke-width:0;stroke-linecap:round;stroke-linejoin:miter;stroke-dasharray:none;stroke-opacity:1;paint-order:normal"
       id="circle359"
       cx="130.68103"
       cy="32.445686"
       r="1.4563681"
       transform="rotate(7.13836)" /><circle
       style="mix-blend-mode:normal;fill:#000000;fill-opacity:1;fill-rule:nonzero;stroke:#000000;stroke-width:0;stroke-linecap:round;stroke-linejoin:miter;stroke-dasharray:none;stroke-opacity:1;paint-order:normal"
       id="circle366"
       cx="114.59852"
       cy="42.464535"
       r="1.4563681"
       transform="rotate(7.13836)" /><circle
       style="mix-blend-mode:normal;fill:#000000;fill-opacity:1;fill-rule:nonzero;stroke:#000000;stroke-width:0;stroke-linecap:round;stroke-linejoin:miter;stroke-dasharray:none;stroke-opacity:1;paint-order:normal"
       id="circle368"
       cx="107.33471"
       cy="36.189632"
       r="1.4563681"
       transform="rotate(7.13836)" /><ellipse
       style="mix-blend-mode:normal;fill:#000000;fill-opacity:1;fill-rule:nonzero;stroke:none;stroke-width:0.168514;stroke-linecap:round;stroke-linejoin:miter;stroke-dasharray:none;stroke-opacity:1;paint-order:normal"
       id="circle456"
       cx="109.24213"
       cy="30.68227"
       transform="rotate(7.13836)"
       rx="1.456368"
       ry="1.4563681" /><circle
       style="mix-blend-mode:normal;fill:#000000;fill-opacity:1;fill-rule:nonzero;stroke:none;stroke-width:0.168514;stroke-linecap:round;stroke-linejoin:miter;stroke-dasharray:none;stroke-opacity:1;paint-order:normal"
       id="circle475"
       cx="121.34812"
       cy="43.29908"
       r="1.4563681"
       transform="rotate(7.13836)" /><ellipse
       style="mix-blend-mode:normal;fill:#000000;fill-opacity:1;fill-rule:nonzero;stroke:none;stroke-width:0.168514;stroke-linecap:round;stroke-linejoin:miter;stroke-dasharray:none;stroke-opacity:1;paint-order:normal"
       id="circle476"
       cx="131.30241"
       cy="38.879322"
       transform="rotate(7.13836)"
       rx="1.456368"
       ry="1.4563681" /><ellipse
       style="mix-blend-mode:normal;fill:#000000;fill-opacity:1;fill-rule:nonzero;stroke:none;stroke-width:0.168514;stroke-linecap:round;stroke-linejoin:miter;stroke-dasharray:none;stroke-opacity:1;paint-order:normal"
       id="circle484"
       cx="132.8119"
       cy="26.42301"
       transform="rotate(7.13836)"
       rx="1.456368"
       ry="1.4563681" /><circle
       style="mix-blend-mode:normal;fill:#000000;fill-opacity:1;fill-rule:nonzero;stroke:none;stroke-width:0.168514;stroke-linecap:round;stroke-linejoin:miter;stroke-dasharray:none;stroke-opacity:1;paint-order:normal"
       id="circle490"
       cx="125.9236"
       cy="27.742325"
       r="1.4563681"
       transform="rotate(7.13836)" /><circle
       style="mix-blend-mode:normal;fill:#000000;fill-opacity:1;fill-rule:nonzero;stroke:none;stroke-width:0.168514;stroke-linecap:round;stroke-linejoin:miter;stroke-dasharray:none;stroke-opacity:1;paint-order:normal"
       id="circle492"
       cx="115.90975"
       cy="22.917299"
       r="1.4563681"
       transform="rotate(7.13836)" /><circle
       style="mix-blend-mode:normal;fill:#000000;fill-opacity:1;fill-rule:nonzero;stroke:none;stroke-width:0.168514;stroke-linecap:round;stroke-linejoin:miter;stroke-dasharray:none;stroke-opacity:1;paint-order:normal"
       id="circle496"
       cx="115.45681"
       cy="29.962734"
       r="1.4563681"
       transform="rotate(7.13836)" /><ellipse
       style="mix-blend-mode:normal;fill:#000000;fill-opacity:1;fill-rule:nonzero;stroke:none;stroke-width:0.168514;stroke-linecap:round;stroke-linejoin:miter;stroke-dasharray:none;stroke-opacity:1;paint-order:normal"
       id="circle506"
       cx="125.50031"
       cy="38.118317"
       transform="rotate(7.13836)"
       rx="1.456368"
       ry="1.4563681" /><circle
       style="mix-blend-mode:normal;fill:#000000;fill-opacity:1;fill-rule:nonzero;stroke:none;stroke-width:0.168514;stroke-linecap:round;stroke-linejoin:miter;stroke-dasharray:none;stroke-opacity:1;paint-order:normal"
       id="circle1290"
       cx="122.80593"
       cy="21.515041"
       r="1.4563681"
       transform="rotate(7.13836)" /><circle
       style="mix-blend-mode:normal;fill:#000000;fill-opacity:1;fill-rule:nonzero;stroke:none;stroke-width:0.168514;stroke-linecap:round;stroke-linejoin:miter;stroke-dasharray:none;stroke-opacity:1;paint-order:normal"
       id="circle1293"
       cx="142.29643"
       cy="28.96929"
       r="1.4563681"
       transform="rotate(7.13836)" /><ellipse
       style="mix-blend-mode:normal;fill:#000000;fill-opacity:1;fill-rule:nonzero;stroke:none;stroke-width:0.168514;stroke-linecap:round;stroke-linejoin:miter;stroke-dasharray:none;stroke-opacity:1;paint-order:normal"
       id="circle1294"
       cx="136.91069"
       cy="32.569717"
       transform="rotate(7.13836)"
       rx="1.456368"
       ry="1.4563681" /><g
       id="g1757"
       style="fill:none;stroke:#000000;stroke-width:0.663198;stroke-linecap:butt;stroke-linejoin:bevel;stroke-dasharray:none;stroke-opacity:1"
       transform="matrix(0.9801,0,0,0.9801,2.3549835,0.95755961)"><path
         d="m 112.038,36.9204 7.159,-0.5452 -0.873,-5.6154 z"
         style="fill:none;stroke:#000000;stroke-width:0.663198;stroke-linecap:butt;stroke-linejoin:bevel;stroke-dasharray:none;stroke-opacity:1"
         id="path1720" /><path
         d="m 115.562,41.6497 3.635,-5.2745 -7.159,0.5452 z"
         style="fill:none;stroke:#000000;stroke-width:0.663198;stroke-linecap:butt;stroke-linejoin:bevel;stroke-dasharray:none;stroke-opacity:1"
         id="path1721" /><path
         d="m 128.705,42.6126 -10.381,-11.8528 0.873,5.6154 z"
         style="fill:none;stroke:#000000;stroke-width:0.663198;stroke-linecap:butt;stroke-linejoin:bevel;stroke-dasharray:none;stroke-opacity:1"
         id="path1722" /><path
         d="m 115.562,41.6497 6.002,1.4252 -2.367,-6.6997 z"
         style="fill:none;stroke:#000000;stroke-width:0.663198;stroke-linecap:butt;stroke-linejoin:bevel;stroke-dasharray:none;stroke-opacity:1"
         id="path1723" /><path
         d="m 121.564,43.0749 7.141,-0.4623 -9.508,-6.2374 z"
         style="fill:none;stroke:#000000;stroke-width:0.663198;stroke-linecap:butt;stroke-linejoin:bevel;stroke-dasharray:none;stroke-opacity:1"
         id="path1724" /><path
         d="m 110.686,43.9958 4.876,-2.3461 -3.524,-4.7293 z"
         style="fill:none;stroke:#000000;stroke-width:0.663198;stroke-linecap:butt;stroke-linejoin:bevel;stroke-dasharray:none;stroke-opacity:1"
         id="path1725" /><path
         d="m 104.303,43.9363 6.383,0.0595 1.352,-7.0754 z"
         style="fill:none;stroke:#000000;stroke-width:0.663198;stroke-linecap:butt;stroke-linejoin:bevel;stroke-dasharray:none;stroke-opacity:1"
         id="path1726" /><path
         d="m 137.984,46.393 -19.66,-15.6332 10.381,11.8528 z"
         style="fill:none;stroke:#000000;stroke-width:0.663198;stroke-linecap:butt;stroke-linejoin:bevel;stroke-dasharray:none;stroke-opacity:1"
         id="path1727" /><path
         d="M 148.533,48.1833 118.324,30.7598 137.984,46.393 Z"
         style="fill:none;stroke:#000000;stroke-width:0.663198;stroke-linecap:butt;stroke-linejoin:bevel;stroke-dasharray:none;stroke-opacity:1"
         id="path1728" /><path
         d="m 88.1487,48.1888 16.1543,-4.2525 7.735,-7.0159 z"
         style="fill:none;stroke:#000000;stroke-width:0.663198;stroke-linecap:butt;stroke-linejoin:bevel;stroke-dasharray:none;stroke-opacity:1"
         id="path1729" /><path
         d="m 116.694,47.9573 4.87,-4.8824 -6.002,-1.4252 z"
         style="fill:none;stroke:#000000;stroke-width:0.663198;stroke-linecap:butt;stroke-linejoin:bevel;stroke-dasharray:none;stroke-opacity:1"
         id="path1730" /><path
         d="m 121.564,43.0749 4.22,5.3649 2.921,-5.8272 z"
         style="fill:none;stroke:#000000;stroke-width:0.663198;stroke-linecap:butt;stroke-linejoin:bevel;stroke-dasharray:none;stroke-opacity:1"
         id="path1731" /><path
         d="m 110.686,43.9958 6.008,3.9615 -1.132,-6.3076 z"
         style="fill:none;stroke:#000000;stroke-width:0.663198;stroke-linecap:butt;stroke-linejoin:bevel;stroke-dasharray:none;stroke-opacity:1"
         id="path1732" /><path
         d="M 118.324,30.7598 88.1487,48.1888 112.038,36.9204 Z"
         style="fill:none;stroke:#000000;stroke-width:0.663198;stroke-linecap:butt;stroke-linejoin:bevel;stroke-dasharray:none;stroke-opacity:1"
         id="path1733" /><path
         d="m 132.076,49.3552 5.908,-2.9622 -9.279,-3.7804 z"
         style="fill:none;stroke:#000000;stroke-width:0.663198;stroke-linecap:butt;stroke-linejoin:bevel;stroke-dasharray:none;stroke-opacity:1"
         id="path1734" /><path
         d="m 104.303,43.9363 4.2,6.0191 2.183,-5.9596 z"
         style="fill:none;stroke:#000000;stroke-width:0.663198;stroke-linecap:butt;stroke-linejoin:bevel;stroke-dasharray:none;stroke-opacity:1"
         id="path1735" /><path
         d="m 125.784,48.4398 6.292,0.9154 -3.371,-6.7426 z"
         style="fill:none;stroke:#000000;stroke-width:0.663198;stroke-linecap:butt;stroke-linejoin:bevel;stroke-dasharray:none;stroke-opacity:1"
         id="path1736" /><path
         d="m 101.674,49.2701 6.829,0.6853 -4.2,-6.0191 z"
         style="fill:none;stroke:#000000;stroke-width:0.663198;stroke-linecap:butt;stroke-linejoin:bevel;stroke-dasharray:none;stroke-opacity:1"
         id="path1737" /><path
         d="m 88.1487,48.1888 13.5253,1.0813 2.629,-5.3338 z"
         style="fill:none;stroke:#000000;stroke-width:0.663198;stroke-linecap:butt;stroke-linejoin:bevel;stroke-dasharray:none;stroke-opacity:1"
         id="path1738" /><path
         d="m 116.694,47.9573 9.09,0.4825 -4.22,-5.3649 z"
         style="fill:none;stroke:#000000;stroke-width:0.663198;stroke-linecap:butt;stroke-linejoin:bevel;stroke-dasharray:none;stroke-opacity:1"
         id="path1739" /><path
         d="m 108.503,49.9554 8.191,-1.9981 -6.008,-3.9615 z"
         style="fill:none;stroke:#000000;stroke-width:0.663198;stroke-linecap:butt;stroke-linejoin:bevel;stroke-dasharray:none;stroke-opacity:1"
         id="path1740" /><path
         d="m 119.82,53.5259 5.964,-5.0861 -9.09,-0.4825 z"
         style="fill:none;stroke:#000000;stroke-width:0.663198;stroke-linecap:butt;stroke-linejoin:bevel;stroke-dasharray:none;stroke-opacity:1"
         id="path1741" /><path
         d="m 125.784,48.4398 6.13,4.9563 0.162,-4.0409 z"
         style="fill:none;stroke:#000000;stroke-width:0.663198;stroke-linecap:butt;stroke-linejoin:bevel;stroke-dasharray:none;stroke-opacity:1"
         id="path1742" /><path
         d="m 119.82,53.5259 5.778,1.5061 0.186,-6.5922 z"
         style="fill:none;stroke:#000000;stroke-width:0.663198;stroke-linecap:butt;stroke-linejoin:bevel;stroke-dasharray:none;stroke-opacity:1"
         id="path1743" /><path
         d="m 125.598,55.032 6.316,-1.6359 -6.13,-4.9563 z"
         style="fill:none;stroke:#000000;stroke-width:0.663198;stroke-linecap:butt;stroke-linejoin:bevel;stroke-dasharray:none;stroke-opacity:1"
         id="path1744" /><path
         d="m 131.914,53.3961 6.07,-7.0031 -5.908,2.9622 z"
         style="fill:none;stroke:#000000;stroke-width:0.663198;stroke-linecap:butt;stroke-linejoin:bevel;stroke-dasharray:none;stroke-opacity:1"
         id="path1745" /><path
         d="m 101.674,49.2701 6.558,7.2736 0.271,-6.5883 z"
         style="fill:none;stroke:#000000;stroke-width:0.663198;stroke-linecap:butt;stroke-linejoin:bevel;stroke-dasharray:none;stroke-opacity:1"
         id="path1746" /><path
         d="m 116.694,47.9573 -1.734,10.2871 4.86,-4.7185 z"
         style="fill:none;stroke:#000000;stroke-width:0.663198;stroke-linecap:butt;stroke-linejoin:bevel;stroke-dasharray:none;stroke-opacity:1"
         id="path1747" /><path
         d="m 108.503,49.9554 6.457,8.289 1.734,-10.2871 z"
         style="fill:none;stroke:#000000;stroke-width:0.663198;stroke-linecap:butt;stroke-linejoin:bevel;stroke-dasharray:none;stroke-opacity:1"
         id="path1748" /><path
         d="m 108.232,56.5437 6.728,1.7007 -6.457,-8.289 z"
         style="fill:none;stroke:#000000;stroke-width:0.663198;stroke-linecap:butt;stroke-linejoin:bevel;stroke-dasharray:none;stroke-opacity:1"
         id="path1749" /><path
         d="M 131.914,53.3961 148.533,48.1833 137.984,46.393 Z"
         style="fill:none;stroke:#000000;stroke-width:0.663198;stroke-linecap:butt;stroke-linejoin:bevel;stroke-dasharray:none;stroke-opacity:1"
         id="path1750" /><path
         d="m 118.229,65.4774 1.591,-11.9515 -4.86,4.7185 z"
         style="fill:none;stroke:#000000;stroke-width:0.663198;stroke-linecap:butt;stroke-linejoin:bevel;stroke-dasharray:none;stroke-opacity:1"
         id="path1751" /><path
         d="M 118.229,65.4774 125.598,55.032 119.82,53.5259 Z"
         style="fill:none;stroke:#000000;stroke-width:0.663198;stroke-linecap:butt;stroke-linejoin:bevel;stroke-dasharray:none;stroke-opacity:1"
         id="path1752" /><path
         d="m 108.232,56.5437 9.997,8.9337 -3.269,-7.233 z"
         style="fill:none;stroke:#000000;stroke-width:0.663198;stroke-linecap:butt;stroke-linejoin:bevel;stroke-dasharray:none;stroke-opacity:1"
         id="path1753" /><path
         d="m 88.1487,48.1888 20.0833,8.3549 -6.558,-7.2736 z"
         style="fill:none;stroke:#000000;stroke-width:0.663198;stroke-linecap:butt;stroke-linejoin:bevel;stroke-dasharray:none;stroke-opacity:1"
         id="path1754" /><path
         d="m 118.229,65.4774 13.685,-12.0813 -6.316,1.6359 z"
         style="fill:none;stroke:#000000;stroke-width:0.663198;stroke-linecap:butt;stroke-linejoin:bevel;stroke-dasharray:none;stroke-opacity:1"
         id="path1755" /><path
         d="m 118.229,65.4774 30.304,-17.2941 -16.619,5.2128 z"
         style="fill:none;stroke:#000000;stroke-width:0.663198;stroke-linecap:butt;stroke-linejoin:bevel;stroke-dasharray:none;stroke-opacity:1"
         id="path1756" /><path
         d="m 88.1487,48.1888 30.0803,17.2886 -9.997,-8.9337 z"
         style="fill:none;stroke:#000000;stroke-width:0.663198;stroke-linecap:butt;stroke-linejoin:bevel;stroke-dasharray:none;stroke-opacity:1"
         id="path1757" /></g><path
       d="m -86.4608,94.0887 3.4542,-5.9828 c 1.4353,0.863 4.1117,1.2945 8.0292,1.2945 h 14.2243 c 4.0184,0 6.0854,1.5744 6.2009,4.7233 0.1156,3.1488 -0.9241,6.6243 -3.1192,10.4263 -2.3836,4.128 -5.3282,7.452 -8.8338,9.971 -3.4888,2.519 -6.8894,3.779 -10.2016,3.779 -3.615,0 -5.8484,-1.563 -6.7004,-4.688 -0.852,-3.126 -0.1199,-6.695 2.1964,-10.707 1.5621,-2.705 3.6722,-5.2826 6.3304,-7.7317 h -3.3038 c -3.5141,0 -6.2729,-0.3615 -8.2766,-1.0846 z m 17.4315,1.0846 c -2.0344,0 -4.0206,0.7464 -5.9585,2.2392 -1.9211,1.4928 -3.5483,3.3935 -4.8815,5.7025 -1.5756,2.729 -2.0479,5.004 -1.4169,6.823 0.6343,1.843 2.3385,2.764 5.1128,2.764 3.514,0 7.0171,-1.248 10.5093,-3.744 3.4921,-2.496 6.1203,-5.271 7.8844,-8.327 1.1985,-2.0756 1.5559,-3.5101 1.0722,-4.3031 -0.4803,-0.7697 -1.7713,-1.1546 -3.873,-1.1546 z"
       id="text1757"
       style="font-size:20.5074px;font-family:'Times New Roman';-inkscape-font-specification:'Times New Roman, Normal';stroke:#000000;stroke-width:0;stroke-linecap:square;stroke-linejoin:round;paint-order:markers stroke fill"
       transform="rotate(-90)"
       aria-label="ρ" /><path
       d="m -85.721,116.751 c 1.2517,1.613 2.6509,2.834 4.1978,3.665 1.556,0.842 3.0874,1.399 4.5941,1.672 1.5159,0.284 3.8169,0.468 6.903,0.551 3.4197,0.083 6.2614,0.534 8.525,1.352 2.2925,0.83 4.1704,2.188 5.6338,4.074 h -1.1184 c -0.6031,-0.676 -1.4035,-1.139 -2.4013,-1.388 -0.9689,-0.237 -2.7386,-0.356 -5.309,-0.356 -3.7673,0 -6.8698,-0.243 -9.3074,-0.729 -2.4088,-0.474 -4.8123,-1.435 -7.2105,-2.882 -2.3983,-1.446 -4.6266,-3.433 -6.6851,-5.959 h -9.33 c -2.2957,0 -3.727,0.077 -4.294,0.231 -0.539,0.166 -0.816,0.504 -0.832,1.014 -0.007,0.522 0.408,1.323 1.246,2.402 h -1.089 l -8.311,-10.709 h 1.089 c 0.838,1.055 1.632,1.838 2.381,2.348 0.778,0.522 1.575,0.866 2.39,1.032 0.845,0.178 2.434,0.267 4.7693,0.267 h 9.33 c -1.8806,-2.55 -2.7407,-4.531 -2.5802,-5.942 0.1605,-1.411 1.0534,-2.372 2.6787,-2.882 1.6541,-0.498 4.4138,-0.747 8.2793,-0.747 2.4723,0 4.0232,-0.112 4.6528,-0.338 0.6493,-0.225 0.7566,-0.693 0.3221,-1.405 h 1.1184 c 0.8903,1.198 1.3265,2.164 1.3085,2.9 -0.018,0.735 -0.6024,1.322 -1.7531,1.761 -1.1414,0.45 -2.9057,0.705 -5.2928,0.765 -2.9376,0.083 -4.9527,0.255 -6.0452,0.515 -1.0834,0.273 -1.7548,0.837 -2.0144,1.69 -0.2399,0.854 0.2614,2.082 1.5039,3.683 h 12.8324 c 2.2957,0 3.7127,-0.083 4.251,-0.249 0.5671,-0.155 0.849,-0.487 0.8457,-0.997 -0.0033,-0.509 -0.4186,-1.31 -1.2457,-2.401 h 1.089 l 8.3109,10.709 h -1.089 c -0.8663,-1.091 -1.6936,-1.892 -2.4818,-2.402 -0.7686,-0.51 -1.5606,-0.848 -2.3762,-1.014 -0.8064,-0.154 -2.3575,-0.231 -4.6532,-0.231 z"
       id="text1758"
       style="font-size:23.6164px;font-family:'Times New Roman';-inkscape-font-specification:'Times New Roman, Normal';stroke:#000000;stroke-width:0.1;stroke-linecap:square;stroke-linejoin:round;stroke-dasharray:none;paint-order:markers stroke fill"
       transform="matrix(0,-0.862515,1.1594,0,0,0)"
       aria-label="Ψ" /></g></svg>
