<?xml version="1.0" encoding="UTF-8" standalone="no"?>
<!-- Created with Inkscape (http://www.inkscape.org/) -->

<svg
   width="61.02235mm"
   height="70.248085mm"
   viewBox="0 0 61.02235 70.248085"
   version="1.1"
   id="svg1"
   xml:space="preserve"
   xmlns:xlink="http://www.w3.org/1999/xlink"
   xmlns="http://www.w3.org/2000/svg"
   xmlns:svg="http://www.w3.org/2000/svg"><defs
     id="defs1"><linearGradient
       id="linearGradient55"><stop
         style="stop-color:#007836;stop-opacity:1;"
         offset="0"
         id="stop55" /><stop
         style="stop-color:#77b300;stop-opacity:1;"
         offset="0.6992389"
         id="stop56" /></linearGradient><linearGradient
       id="linearGradient53"><stop
         style="stop-color:#0b1f8f;stop-opacity:1;"
         offset="0"
         id="stop53" /><stop
         style="stop-color:#0082ca;stop-opacity:1;"
         offset="0.70341361"
         id="stop54" /></linearGradient><linearGradient
       id="linearGradient51"><stop
         style="stop-color:#a12b2f;stop-opacity:1;"
         offset="0"
         id="stop51" /><stop
         style="stop-color:#cd202c;stop-opacity:1;"
         offset="0.69999999"
         id="stop52" /></linearGradient><linearGradient
       xlink:href="#linearGradient55"
       id="linearGradient270"
       gradientUnits="userSpaceOnUse"
       gradientTransform="matrix(0.866025,0.5,0,1,-87.734462,-30.511515)"
       x1="101.73597"
       y1="32.138626"
       x2="136.60098"
       y2="-2.6905365" /><linearGradient
       xlink:href="#linearGradient51"
       id="linearGradient269"
       gradientUnits="userSpaceOnUse"
       gradientTransform="matrix(0.866025,0.5,-0.866025,0.5,-87.734462,-30.511515)"
       x1="99.045441"
       y1="-37.519699"
       x2="133.91045"
       y2="-2.6905365" /><linearGradient
       xlink:href="#linearGradient53"
       id="linearGradient268"
       gradientUnits="userSpaceOnUse"
       gradientTransform="matrix(0.866025,-0.5,0,1,-87.734462,-30.511515)"
       x1="171.448"
       y1="168.73956"
       x2="136.58302"
       y2="133.9104" /></defs><g
     id="layer2"
     transform="translate(-0.0464287, 0.0301027)"><path
       id="path245"
       style="fill:url(#linearGradient270);stroke:#000000;stroke-width:0.65;stroke-linecap:round;stroke-linejoin:bevel;stroke-dasharray:none"
       d="M 0.37142872,17.665933 30.565368,35.098423 V 69.92758 L 0.37142872,52.495103 Z" /><path
       id="path246"
       d="M 30.534358,0.25135553 60.728323,17.683853 30.565398,35.098443 0.37143872,17.665933 Z"
       style="fill:url(#linearGradient269);stroke:#000000;stroke-width:0.65;stroke-linecap:butt;stroke-linejoin:bevel;stroke-dasharray:none;stroke-opacity:1" /><path
       id="path247"
       style="fill:url(#linearGradient268);stroke:#000000;stroke-width:0.65;stroke-linecap:round;stroke-linejoin:bevel;stroke-dasharray:none"
       d="m 30.549848,35.107383 30.193935,-17.43249 v 34.82916 L 30.549848,69.93653 Z" /><path
       d="M 9.2288535,52.703307 4.8309458,50.164152 C 5.4653299,49.109076 5.7825222,47.141676 5.7825222,44.261953 V 33.805785 c 0,-2.953893 1.1573286,-4.473328 3.4720595,-4.558231 2.3146573,-0.08498 4.8694713,0.679298 7.6642893,2.292899 3.034459,1.752165 5.477904,3.916716 7.329601,6.493655 1.851697,2.564588 2.777913,5.064342 2.777913,7.499113 0,2.657357 -1.148949,4.299111 -3.446111,4.925409 -2.297898,0.626299 -4.921441,0.08814 -7.870629,-1.614555 -1.988424,-1.148288 -3.883197,-2.699404 -5.683511,-4.653426 v 2.428597 c 0,2.583186 -0.2657356,4.611157 -0.7972805,6.084061 z M 10.026134,39.889554 c 0,1.495471 0.548673,2.955509 1.646018,4.380044 1.097345,1.412185 2.494535,2.608327 4.191863,3.588351 2.006064,1.158212 3.678399,1.505395 5.01553,1.041552 1.354775,-0.46627 2.031794,-1.719013 2.031794,-3.758379 0,-2.583112 -0.917395,-5.158213 -2.752184,-7.725299 -1.834789,-2.567015 -3.874669,-4.498984 -6.12111,-5.79576 -1.525756,-0.881007 -2.580246,-1.143729 -3.163174,-0.788166 -0.5658,0.353066 -0.848737,1.302069 -0.848737,2.847012 z"
       id="text1757"
       style="font-size:20.5074px;font-family:'Times New Roman';-inkscape-font-specification:'Times New Roman, Normal';stroke:#000000;stroke-width:0;stroke-linecap:square;stroke-linejoin:round;paint-order:markers stroke fill"
       aria-label="ρ" /><path
       d="m 46.894707,44.203883 c 1.178504,-0.68004 2.071063,-1.44076 2.677678,-2.28151 0.615248,-0.84579 1.022517,-1.67835 1.221801,-2.49768 0.207982,-0.82372 0.342287,-2.07478 0.402982,-3.75249 0.06063,-1.85862 0.389937,-3.40336 0.987853,-4.63423 0.606616,-1.246 1.598815,-2.26702 2.976668,-3.06239 v 0.60819 c -0.493927,0.32774 -0.83193,0.76261 -1.013882,1.30525 -0.173319,0.52689 -0.259978,1.48865 -0.259978,2.88592 0,2.04767 -0.177668,3.73422 -0.53294,5.05964 -0.346637,1.30903 -1.048545,2.61553 -2.105725,3.91951 -1.057245,1.30336 -2.508707,2.5147 -4.354457,3.63403 v 5.07162 c 0,1.24788 0.05628,2.02625 0.16897,2.33443 0.121323,0.29243 0.368254,0.44307 0.740921,0.45189 0.381238,0.007 0.966172,-0.22184 1.754739,-0.67689 v 0.59181 l -7.825047,4.51826 v -0.59243 c 0.771234,-0.45568 1.343185,-0.8874 1.715789,-1.29453 0.381301,-0.42291 0.632581,-0.85589 0.753905,-1.29894 0.130021,-0.45947 0.194999,-1.32354 0.194999,-2.59287 v -5.07161 c -1.863143,1.02227 -3.310259,1.48991 -4.341473,1.40293 -1.031215,-0.0877 -1.733123,-0.57289 -2.105789,-1.4565 -0.363906,-0.89937 -0.545922,-2.39936 -0.545922,-4.50061 0,-1.34369 -0.08231,-2.18697 -0.246932,-2.52919 -0.164685,-0.35294 -0.506974,-0.41156 -1.026866,-0.1752 v -0.60819 c 0.875229,-0.4834 1.581422,-0.72101 2.11871,-0.71093 0.537287,0.01 0.966235,0.32709 1.286844,0.95293 0.329305,0.62081 0.515604,1.57941 0.558966,2.8771 0.06063,1.59704 0.186304,2.69242 0.376953,3.28612 0.199286,0.58928 0.610902,0.95419 1.234849,1.09536 0.623884,0.13046 1.52079,-0.14242 2.69066,-0.81742 v -6.97623 c 0,-1.2479 -0.06069,-2.01805 -0.181955,-2.31049 -0.112688,-0.30821 -0.355334,-0.46134 -0.727936,-0.46008 -0.372603,0.003 -0.957538,0.2275 -1.754802,0.67751 v -0.5918 l 7.825047,-4.51826 v 0.59243 c -0.797201,0.47079 -1.382136,0.92016 -1.754739,1.34873 -0.372667,0.41786 -0.619598,0.84832 -0.740921,1.29201 -0.112687,0.43803 -0.16897,1.2813 -0.16897,2.52919 z"
       id="text270-9"
       style="font-size:24.6944px;font-family:'Times New Roman';-inkscape-font-specification:'Times New Roman, Normal';fill:#000000;fill-opacity:1;stroke:#000000;stroke-width:0.319;stroke-dasharray:none;paint-order:markers stroke fill"
       aria-label="Ψ" /><circle
       style="mix-blend-mode:normal;fill:#000000;fill-opacity:1;fill-rule:nonzero;stroke:#000000;stroke-width:0;stroke-linecap:round;stroke-linejoin:miter;stroke-dasharray:none;stroke-opacity:1;paint-order:normal"
       id="circle335"
       cx="28.954685"
       cy="7.5790219"
       r="1.4563681"
       transform="rotate(7.13836)" /><circle
       style="mix-blend-mode:normal;fill:#000000;fill-opacity:1;fill-rule:nonzero;stroke:#000000;stroke-width:0;stroke-linecap:round;stroke-linejoin:miter;stroke-dasharray:none;stroke-opacity:1;paint-order:normal"
       id="circle336"
       cx="23.1012"
       cy="16.51602"
       r="1.4563681"
       transform="rotate(7.13836)" /><circle
       style="mix-blend-mode:normal;fill:#000000;fill-opacity:1;fill-rule:nonzero;stroke:#000000;stroke-width:0;stroke-linecap:round;stroke-linejoin:miter;stroke-dasharray:none;stroke-opacity:1;paint-order:normal"
       id="circle349"
       cx="46.28756"
       cy="17.010847"
       r="1.4563681"
       transform="rotate(7.13836)" /><circle
       style="mix-blend-mode:normal;fill:#000000;fill-opacity:1;fill-rule:nonzero;stroke:#000000;stroke-width:0;stroke-linecap:round;stroke-linejoin:miter;stroke-dasharray:none;stroke-opacity:1;paint-order:normal"
       id="circle355"
       cx="30.82346"
       cy="13.575325"
       r="1.4563681"
       transform="rotate(7.13836)" /><circle
       style="mix-blend-mode:normal;fill:#000000;fill-opacity:1;fill-rule:nonzero;stroke:#000000;stroke-width:0;stroke-linecap:round;stroke-linejoin:miter;stroke-dasharray:none;stroke-opacity:1;paint-order:normal"
       id="circle359"
       cx="39.722649"
       cy="12.937386"
       r="1.4563681"
       transform="rotate(7.13836)" /><circle
       style="mix-blend-mode:normal;fill:#000000;fill-opacity:1;fill-rule:nonzero;stroke:#000000;stroke-width:0;stroke-linecap:round;stroke-linejoin:miter;stroke-dasharray:none;stroke-opacity:1;paint-order:normal"
       id="circle366"
       cx="23.640141"
       cy="22.956236"
       r="1.4563681"
       transform="rotate(7.13836)" /><circle
       style="mix-blend-mode:normal;fill:#000000;fill-opacity:1;fill-rule:nonzero;stroke:#000000;stroke-width:0;stroke-linecap:round;stroke-linejoin:miter;stroke-dasharray:none;stroke-opacity:1;paint-order:normal"
       id="circle368"
       cx="16.376331"
       cy="16.681334"
       r="1.4563681"
       transform="rotate(7.13836)" /><ellipse
       style="mix-blend-mode:normal;fill:#000000;fill-opacity:1;fill-rule:nonzero;stroke:none;stroke-width:0.168514;stroke-linecap:round;stroke-linejoin:miter;stroke-dasharray:none;stroke-opacity:1;paint-order:normal"
       id="circle456"
       cx="18.283749"
       cy="11.173969"
       transform="rotate(7.13836)"
       rx="1.456368"
       ry="1.4563681" /><circle
       style="mix-blend-mode:normal;fill:#000000;fill-opacity:1;fill-rule:nonzero;stroke:none;stroke-width:0.168514;stroke-linecap:round;stroke-linejoin:miter;stroke-dasharray:none;stroke-opacity:1;paint-order:normal"
       id="circle475"
       cx="30.389744"
       cy="23.790781"
       r="1.4563681"
       transform="rotate(7.13836)" /><ellipse
       style="mix-blend-mode:normal;fill:#000000;fill-opacity:1;fill-rule:nonzero;stroke:none;stroke-width:0.168514;stroke-linecap:round;stroke-linejoin:miter;stroke-dasharray:none;stroke-opacity:1;paint-order:normal"
       id="circle476"
       cx="40.344032"
       cy="19.371023"
       transform="rotate(7.13836)"
       rx="1.456368"
       ry="1.4563681" /><ellipse
       style="mix-blend-mode:normal;fill:#000000;fill-opacity:1;fill-rule:nonzero;stroke:none;stroke-width:0.168514;stroke-linecap:round;stroke-linejoin:miter;stroke-dasharray:none;stroke-opacity:1;paint-order:normal"
       id="circle484"
       cx="41.853523"
       cy="6.9147096"
       transform="rotate(7.13836)"
       rx="1.456368"
       ry="1.4563681" /><circle
       style="mix-blend-mode:normal;fill:#000000;fill-opacity:1;fill-rule:nonzero;stroke:none;stroke-width:0.168514;stroke-linecap:round;stroke-linejoin:miter;stroke-dasharray:none;stroke-opacity:1;paint-order:normal"
       id="circle490"
       cx="34.965221"
       cy="8.234024"
       r="1.4563681"
       transform="rotate(7.13836)" /><circle
       style="mix-blend-mode:normal;fill:#000000;fill-opacity:1;fill-rule:nonzero;stroke:none;stroke-width:0.168514;stroke-linecap:round;stroke-linejoin:miter;stroke-dasharray:none;stroke-opacity:1;paint-order:normal"
       id="circle492"
       cx="24.951374"
       cy="3.4089987"
       r="1.4563681"
       transform="rotate(7.13836)" /><circle
       style="mix-blend-mode:normal;fill:#000000;fill-opacity:1;fill-rule:nonzero;stroke:none;stroke-width:0.168514;stroke-linecap:round;stroke-linejoin:miter;stroke-dasharray:none;stroke-opacity:1;paint-order:normal"
       id="circle496"
       cx="24.498432"
       cy="10.454433"
       r="1.4563681"
       transform="rotate(7.13836)" /><ellipse
       style="mix-blend-mode:normal;fill:#000000;fill-opacity:1;fill-rule:nonzero;stroke:none;stroke-width:0.168514;stroke-linecap:round;stroke-linejoin:miter;stroke-dasharray:none;stroke-opacity:1;paint-order:normal"
       id="circle506"
       cx="34.541935"
       cy="18.610018"
       transform="rotate(7.13836)"
       rx="1.456368"
       ry="1.4563681" /><circle
       style="mix-blend-mode:normal;fill:#000000;fill-opacity:1;fill-rule:nonzero;stroke:none;stroke-width:0.168514;stroke-linecap:round;stroke-linejoin:miter;stroke-dasharray:none;stroke-opacity:1;paint-order:normal"
       id="circle1290"
       cx="31.847553"
       cy="2.0067408"
       r="1.4563681"
       transform="rotate(7.13836)" /><circle
       style="mix-blend-mode:normal;fill:#000000;fill-opacity:1;fill-rule:nonzero;stroke:none;stroke-width:0.168514;stroke-linecap:round;stroke-linejoin:miter;stroke-dasharray:none;stroke-opacity:1;paint-order:normal"
       id="circle1293"
       cx="51.338051"
       cy="9.460989"
       r="1.4563681"
       transform="rotate(7.13836)" /><ellipse
       style="mix-blend-mode:normal;fill:#000000;fill-opacity:1;fill-rule:nonzero;stroke:none;stroke-width:0.168514;stroke-linecap:round;stroke-linejoin:miter;stroke-dasharray:none;stroke-opacity:1;paint-order:normal"
       id="circle1294"
       cx="45.952309"
       cy="13.061416"
       transform="rotate(7.13836)"
       rx="1.456368"
       ry="1.4563681" /><g
       id="g1757"
       style="fill:none;stroke:#000000;stroke-width:0.663198;stroke-linecap:butt;stroke-linejoin:bevel;stroke-dasharray:none;stroke-opacity:1"
       transform="matrix(0.9801,0,0,0.9801,-85.474157,-29.702548)"><path
         d="m 112.038,36.9204 7.159,-0.5452 -0.873,-5.6154 z"
         style="fill:none;stroke:#000000;stroke-width:0.663198;stroke-linecap:butt;stroke-linejoin:bevel;stroke-dasharray:none;stroke-opacity:1"
         id="path1720" /><path
         d="m 115.562,41.6497 3.635,-5.2745 -7.159,0.5452 z"
         style="fill:none;stroke:#000000;stroke-width:0.663198;stroke-linecap:butt;stroke-linejoin:bevel;stroke-dasharray:none;stroke-opacity:1"
         id="path1721" /><path
         d="m 128.705,42.6126 -10.381,-11.8528 0.873,5.6154 z"
         style="fill:none;stroke:#000000;stroke-width:0.663198;stroke-linecap:butt;stroke-linejoin:bevel;stroke-dasharray:none;stroke-opacity:1"
         id="path1722" /><path
         d="m 115.562,41.6497 6.002,1.4252 -2.367,-6.6997 z"
         style="fill:none;stroke:#000000;stroke-width:0.663198;stroke-linecap:butt;stroke-linejoin:bevel;stroke-dasharray:none;stroke-opacity:1"
         id="path1723" /><path
         d="m 121.564,43.0749 7.141,-0.4623 -9.508,-6.2374 z"
         style="fill:none;stroke:#000000;stroke-width:0.663198;stroke-linecap:butt;stroke-linejoin:bevel;stroke-dasharray:none;stroke-opacity:1"
         id="path1724" /><path
         d="m 110.686,43.9958 4.876,-2.3461 -3.524,-4.7293 z"
         style="fill:none;stroke:#000000;stroke-width:0.663198;stroke-linecap:butt;stroke-linejoin:bevel;stroke-dasharray:none;stroke-opacity:1"
         id="path1725" /><path
         d="m 104.303,43.9363 6.383,0.0595 1.352,-7.0754 z"
         style="fill:none;stroke:#000000;stroke-width:0.663198;stroke-linecap:butt;stroke-linejoin:bevel;stroke-dasharray:none;stroke-opacity:1"
         id="path1726" /><path
         d="m 137.984,46.393 -19.66,-15.6332 10.381,11.8528 z"
         style="fill:none;stroke:#000000;stroke-width:0.663198;stroke-linecap:butt;stroke-linejoin:bevel;stroke-dasharray:none;stroke-opacity:1"
         id="path1727" /><path
         d="M 148.533,48.1833 118.324,30.7598 137.984,46.393 Z"
         style="fill:none;stroke:#000000;stroke-width:0.663198;stroke-linecap:butt;stroke-linejoin:bevel;stroke-dasharray:none;stroke-opacity:1"
         id="path1728" /><path
         d="m 88.1487,48.1888 16.1543,-4.2525 7.735,-7.0159 z"
         style="fill:none;stroke:#000000;stroke-width:0.663198;stroke-linecap:butt;stroke-linejoin:bevel;stroke-dasharray:none;stroke-opacity:1"
         id="path1729" /><path
         d="m 116.694,47.9573 4.87,-4.8824 -6.002,-1.4252 z"
         style="fill:none;stroke:#000000;stroke-width:0.663198;stroke-linecap:butt;stroke-linejoin:bevel;stroke-dasharray:none;stroke-opacity:1"
         id="path1730" /><path
         d="m 121.564,43.0749 4.22,5.3649 2.921,-5.8272 z"
         style="fill:none;stroke:#000000;stroke-width:0.663198;stroke-linecap:butt;stroke-linejoin:bevel;stroke-dasharray:none;stroke-opacity:1"
         id="path1731" /><path
         d="m 110.686,43.9958 6.008,3.9615 -1.132,-6.3076 z"
         style="fill:none;stroke:#000000;stroke-width:0.663198;stroke-linecap:butt;stroke-linejoin:bevel;stroke-dasharray:none;stroke-opacity:1"
         id="path1732" /><path
         d="M 118.324,30.7598 88.1487,48.1888 112.038,36.9204 Z"
         style="fill:none;stroke:#000000;stroke-width:0.663198;stroke-linecap:butt;stroke-linejoin:bevel;stroke-dasharray:none;stroke-opacity:1"
         id="path1733" /><path
         d="m 132.076,49.3552 5.908,-2.9622 -9.279,-3.7804 z"
         style="fill:none;stroke:#000000;stroke-width:0.663198;stroke-linecap:butt;stroke-linejoin:bevel;stroke-dasharray:none;stroke-opacity:1"
         id="path1734" /><path
         d="m 104.303,43.9363 4.2,6.0191 2.183,-5.9596 z"
         style="fill:none;stroke:#000000;stroke-width:0.663198;stroke-linecap:butt;stroke-linejoin:bevel;stroke-dasharray:none;stroke-opacity:1"
         id="path1735" /><path
         d="m 125.784,48.4398 6.292,0.9154 -3.371,-6.7426 z"
         style="fill:none;stroke:#000000;stroke-width:0.663198;stroke-linecap:butt;stroke-linejoin:bevel;stroke-dasharray:none;stroke-opacity:1"
         id="path1736" /><path
         d="m 101.674,49.2701 6.829,0.6853 -4.2,-6.0191 z"
         style="fill:none;stroke:#000000;stroke-width:0.663198;stroke-linecap:butt;stroke-linejoin:bevel;stroke-dasharray:none;stroke-opacity:1"
         id="path1737" /><path
         d="m 88.1487,48.1888 13.5253,1.0813 2.629,-5.3338 z"
         style="fill:none;stroke:#000000;stroke-width:0.663198;stroke-linecap:butt;stroke-linejoin:bevel;stroke-dasharray:none;stroke-opacity:1"
         id="path1738" /><path
         d="m 116.694,47.9573 9.09,0.4825 -4.22,-5.3649 z"
         style="fill:none;stroke:#000000;stroke-width:0.663198;stroke-linecap:butt;stroke-linejoin:bevel;stroke-dasharray:none;stroke-opacity:1"
         id="path1739" /><path
         d="m 108.503,49.9554 8.191,-1.9981 -6.008,-3.9615 z"
         style="fill:none;stroke:#000000;stroke-width:0.663198;stroke-linecap:butt;stroke-linejoin:bevel;stroke-dasharray:none;stroke-opacity:1"
         id="path1740" /><path
         d="m 119.82,53.5259 5.964,-5.0861 -9.09,-0.4825 z"
         style="fill:none;stroke:#000000;stroke-width:0.663198;stroke-linecap:butt;stroke-linejoin:bevel;stroke-dasharray:none;stroke-opacity:1"
         id="path1741" /><path
         d="m 125.784,48.4398 6.13,4.9563 0.162,-4.0409 z"
         style="fill:none;stroke:#000000;stroke-width:0.663198;stroke-linecap:butt;stroke-linejoin:bevel;stroke-dasharray:none;stroke-opacity:1"
         id="path1742" /><path
         d="m 119.82,53.5259 5.778,1.5061 0.186,-6.5922 z"
         style="fill:none;stroke:#000000;stroke-width:0.663198;stroke-linecap:butt;stroke-linejoin:bevel;stroke-dasharray:none;stroke-opacity:1"
         id="path1743" /><path
         d="m 125.598,55.032 6.316,-1.6359 -6.13,-4.9563 z"
         style="fill:none;stroke:#000000;stroke-width:0.663198;stroke-linecap:butt;stroke-linejoin:bevel;stroke-dasharray:none;stroke-opacity:1"
         id="path1744" /><path
         d="m 131.914,53.3961 6.07,-7.0031 -5.908,2.9622 z"
         style="fill:none;stroke:#000000;stroke-width:0.663198;stroke-linecap:butt;stroke-linejoin:bevel;stroke-dasharray:none;stroke-opacity:1"
         id="path1745" /><path
         d="m 101.674,49.2701 6.558,7.2736 0.271,-6.5883 z"
         style="fill:none;stroke:#000000;stroke-width:0.663198;stroke-linecap:butt;stroke-linejoin:bevel;stroke-dasharray:none;stroke-opacity:1"
         id="path1746" /><path
         d="m 116.694,47.9573 -1.734,10.2871 4.86,-4.7185 z"
         style="fill:none;stroke:#000000;stroke-width:0.663198;stroke-linecap:butt;stroke-linejoin:bevel;stroke-dasharray:none;stroke-opacity:1"
         id="path1747" /><path
         d="m 108.503,49.9554 6.457,8.289 1.734,-10.2871 z"
         style="fill:none;stroke:#000000;stroke-width:0.663198;stroke-linecap:butt;stroke-linejoin:bevel;stroke-dasharray:none;stroke-opacity:1"
         id="path1748" /><path
         d="m 108.232,56.5437 6.728,1.7007 -6.457,-8.289 z"
         style="fill:none;stroke:#000000;stroke-width:0.663198;stroke-linecap:butt;stroke-linejoin:bevel;stroke-dasharray:none;stroke-opacity:1"
         id="path1749" /><path
         d="M 131.914,53.3961 148.533,48.1833 137.984,46.393 Z"
         style="fill:none;stroke:#000000;stroke-width:0.663198;stroke-linecap:butt;stroke-linejoin:bevel;stroke-dasharray:none;stroke-opacity:1"
         id="path1750" /><path
         d="m 118.229,65.4774 1.591,-11.9515 -4.86,4.7185 z"
         style="fill:none;stroke:#000000;stroke-width:0.663198;stroke-linecap:butt;stroke-linejoin:bevel;stroke-dasharray:none;stroke-opacity:1"
         id="path1751" /><path
         d="M 118.229,65.4774 125.598,55.032 119.82,53.5259 Z"
         style="fill:none;stroke:#000000;stroke-width:0.663198;stroke-linecap:butt;stroke-linejoin:bevel;stroke-dasharray:none;stroke-opacity:1"
         id="path1752" /><path
         d="m 108.232,56.5437 9.997,8.9337 -3.269,-7.233 z"
         style="fill:none;stroke:#000000;stroke-width:0.663198;stroke-linecap:butt;stroke-linejoin:bevel;stroke-dasharray:none;stroke-opacity:1"
         id="path1753" /><path
         d="m 88.1487,48.1888 20.0833,8.3549 -6.558,-7.2736 z"
         style="fill:none;stroke:#000000;stroke-width:0.663198;stroke-linecap:butt;stroke-linejoin:bevel;stroke-dasharray:none;stroke-opacity:1"
         id="path1754" /><path
         d="m 118.229,65.4774 13.685,-12.0813 -6.316,1.6359 z"
         style="fill:none;stroke:#000000;stroke-width:0.663198;stroke-linecap:butt;stroke-linejoin:bevel;stroke-dasharray:none;stroke-opacity:1"
         id="path1755" /><path
         d="m 118.229,65.4774 30.304,-17.2941 -16.619,5.2128 z"
         style="fill:none;stroke:#000000;stroke-width:0.663198;stroke-linecap:butt;stroke-linejoin:bevel;stroke-dasharray:none;stroke-opacity:1"
         id="path1756" /><path
         d="m 88.1487,48.1888 30.0803,17.2886 -9.997,-8.9337 z"
         style="fill:none;stroke:#000000;stroke-width:0.663198;stroke-linecap:butt;stroke-linejoin:bevel;stroke-dasharray:none;stroke-opacity:1"
         id="path1757" /></g></g><g
     id="g8"
     transform="translate(-59.75278,4.49001)"><g
       id="g63-7"
       style="stroke-width:1;stroke-dasharray:none"
       transform="translate(5.71402,-174.382)"><path
         id="rect1-7"
         style="fill:none;stroke:#000000;stroke-linejoin:bevel"
         d="m 114.547,192.953 v 24.118 c 0,2.967 -2.07,6.551 -4.642,8.036 l -20.9087,12.071 c -2.5721,1.485 -4.6429,0.292 -4.6429,-2.675 v -24.118 c 0,-2.967 2.0708,-6.551 4.6429,-8.036 l 20.9087,-12.071 c 2.572,-1.485 4.642,-0.292 4.642,2.675 z" /><path
         id="rect2-6"
         style="fill:none;stroke:#000000;stroke-linejoin:bevel"
         d="m 114.547,187.597 v 34.829 L 84.3534,239.859 V 205.03 Z" /></g><path
       style="fill:#000000;stroke-width:0.336485;stroke-dasharray:none"
       d="m 118.94,14.0824 1.265,-0.7305 v 1.4595 1.4594 l -0.568,-0.476 c -0.313,-0.2617 -0.882,-0.5898 -1.266,-0.7289 l -0.697,-0.253 z"
       id="path63-7" /><path
       style="fill:#000000;stroke-width:0.336485;stroke-dasharray:none"
       d="m 118.381,48.3295 c 0.375,-0.5549 0.938,-1.5193 1.251,-2.1431 l 0.569,-1.1341 v 1.4594 1.4595 l -1.26,0.7276 c -0.693,0.4002 -1.256,0.7074 -1.251,0.6837 0.004,-0.0234 0.317,-0.498 0.691,-1.0529 z"
       id="path64-3" /><path
       style="fill:#000000;stroke-width:0.336485;stroke-dasharray:none"
       d="m 90.2779,62.4069 c 0.0583,0.0462 0.3351,0.2848 0.615,0.5301 0.2799,0.2452 0.8046,0.5448 1.166,0.6657 l 0.6572,0.2198 -1.2722,0.7345 -1.2721,0.7345 v -1.4844 c 0,-0.8164 0.0478,-1.4465 0.106,-1.4001 z"
       id="path65-6" /><path
       style="fill:#000000;stroke-width:0.336485;stroke-dasharray:none"
       d="m 91.3828,30.0094 1.2721,-0.7345 -0.6572,0.9787 c -0.3614,0.5382 -0.8861,1.4437 -1.166,2.0121 -0.2799,0.5685 -0.5566,1.1266 -0.615,1.2402 -0.0584,0.1137 -0.1061,-0.4613 -0.1061,-1.2777 v -1.4843 z"
       id="path66-5" /></g><g
     id="g13"
     transform="matrix(-1,0,0,1,120.85276,4.49001)"><g
       id="g9"
       style="stroke-width:1;stroke-dasharray:none"
       transform="translate(5.71402,-174.382)"><path
         id="path8"
         style="fill:none;stroke:#000000;stroke-linejoin:bevel"
         d="m 114.547,192.953 v 24.118 c 0,2.967 -2.07,6.551 -4.642,8.036 l -20.9087,12.071 c -2.5721,1.485 -4.6429,0.292 -4.6429,-2.675 v -24.118 c 0,-2.967 2.0708,-6.551 4.6429,-8.036 l 20.9087,-12.071 c 2.572,-1.485 4.642,-0.292 4.642,2.675 z" /><path
         id="path9"
         style="fill:none;stroke:#000000;stroke-linejoin:bevel"
         d="m 114.547,187.597 v 34.829 L 84.3534,239.859 V 205.03 Z" /></g><path
       style="fill:#000000;stroke-width:0.336485;stroke-dasharray:none"
       d="m 118.94,14.0824 1.265,-0.7305 v 1.4595 1.4594 l -0.568,-0.476 c -0.313,-0.2617 -0.882,-0.5898 -1.266,-0.7289 l -0.697,-0.253 z"
       id="path10" /><path
       style="fill:#000000;stroke-width:0.336485;stroke-dasharray:none"
       d="m 118.381,48.3295 c 0.375,-0.5549 0.938,-1.5193 1.251,-2.1431 l 0.569,-1.1341 v 1.4594 1.4595 l -1.26,0.7276 c -0.693,0.4002 -1.256,0.7074 -1.251,0.6837 0.004,-0.0234 0.317,-0.498 0.691,-1.0529 z"
       id="path11" /><path
       style="fill:#000000;stroke-width:0.336485;stroke-dasharray:none"
       d="m 90.2779,62.4069 c 0.0583,0.0462 0.3351,0.2848 0.615,0.5301 0.2799,0.2452 0.8046,0.5448 1.166,0.6657 l 0.6572,0.2198 -1.2722,0.7345 -1.2721,0.7345 v -1.4844 c 0,-0.8164 0.0478,-1.4465 0.106,-1.4001 z"
       id="path12" /><path
       style="fill:#000000;stroke-width:0.336485;stroke-dasharray:none"
       d="m 91.3828,30.0094 1.2721,-0.7345 -0.6572,0.9787 c -0.3614,0.5382 -0.8861,1.4437 -1.166,2.0121 -0.2799,0.5685 -0.5566,1.1266 -0.615,1.2402 -0.0584,0.1137 -0.1061,-0.4613 -0.1061,-1.2777 v -1.4843 z"
       id="path13" /></g><g
     id="g24"
     transform="matrix(0.5,-0.8660254,-0.8660254,-0.5,12.055034,128.69342)"><g
       id="g20"
       style="stroke-width:1;stroke-dasharray:none"
       transform="translate(5.71402,-174.382)"><path
         id="path19"
         style="fill:none;stroke:#000000;stroke-linejoin:bevel"
         d="m 114.547,192.953 v 24.118 c 0,2.967 -2.07,6.551 -4.642,8.036 l -20.9087,12.071 c -2.5721,1.485 -4.6429,0.292 -4.6429,-2.675 v -24.118 c 0,-2.967 2.0708,-6.551 4.6429,-8.036 l 20.9087,-12.071 c 2.572,-1.485 4.642,-0.292 4.642,2.675 z" /><path
         id="path20"
         style="fill:none;stroke:#000000;stroke-linejoin:bevel"
         d="m 114.547,187.597 v 34.829 L 84.3534,239.859 V 205.03 Z" /></g><path
       style="fill:#000000;stroke-width:0.336485;stroke-dasharray:none"
       d="m 118.94,14.0824 1.265,-0.7305 v 1.4595 1.4594 l -0.568,-0.476 c -0.313,-0.2617 -0.882,-0.5898 -1.266,-0.7289 l -0.697,-0.253 z"
       id="path21" /><path
       style="fill:#000000;stroke-width:0.336485;stroke-dasharray:none"
       d="m 118.381,48.3295 c 0.375,-0.5549 0.938,-1.5193 1.251,-2.1431 l 0.569,-1.1341 v 1.4594 1.4595 l -1.26,0.7276 c -0.693,0.4002 -1.256,0.7074 -1.251,0.6837 0.004,-0.0234 0.317,-0.498 0.691,-1.0529 z"
       id="path22" /><path
       style="fill:#000000;stroke-width:0.336485;stroke-dasharray:none"
       d="m 90.2779,62.4069 c 0.0583,0.0462 0.3351,0.2848 0.615,0.5301 0.2799,0.2452 0.8046,0.5448 1.166,0.6657 l 0.6572,0.2198 -1.2722,0.7345 -1.2721,0.7345 v -1.4844 c 0,-0.8164 0.0478,-1.4465 0.106,-1.4001 z"
       id="path23" /><path
       style="fill:#000000;stroke-width:0.336485;stroke-dasharray:none"
       d="m 91.3828,30.0094 1.2721,-0.7345 -0.6572,0.9787 c -0.3614,0.5382 -0.8861,1.4437 -1.166,2.0121 -0.2799,0.5685 -0.5566,1.1266 -0.615,1.2402 -0.0584,0.1137 -0.1061,-0.4613 -0.1061,-1.2777 v -1.4843 z"
       id="path24" /></g></svg>
